<svg width="44" height="45" viewBox="0 0 44 45" xmlns="http://www.w3.org/2000/svg"><title>calendario</title><g fill="#1BB99A" fill-rule="nonzero" stroke="#1BB99A" stroke-width="1.17"><path d="M24.698 39.071H1V7.234c0-1.982 1.61-3.59 3.598-3.59h3.583V1h1.999v2.644h17.146V1h1.999v2.644h3.613a3.594 3.594 0 0 1 3.597 3.59v17.761a9.382 9.382 0 0 0-2.028-.818v-.426h-5.67v.636a9.383 9.383 0 0 0-1.008.425v-1.06h-5.374v6.366h.664a9.226 9.226 0 0 0-.289 1.005h-.375v5.973h1.005c.33.712.747 1.374 1.238 1.975zm9.809-31.837c0-.875-.707-1.587-1.584-1.595h-3.598v2.748h-2V5.639H10.18v2.748H8.181V5.639H4.598a1.612 1.612 0 0 0-1.6 1.595v7.062h31.509V7.234zM16.073 30.118h5.375v-6.367h-5.375v6.367zm0 1.005v5.967l5.375.005v-5.972h-5.375zm-6.382-1.005h5.375v-6.367H9.691v6.367zm0 1.005v5.96l5.375.006v-5.966H9.691zM3 30.118h5.686v-6.367H2.999v6.367zm0 1.005v5.954l5.686.005v-5.959H2.999zm24.83-8.377V16.32h-5.374v6.426h5.374zm-11.756 0h5.375V16.32h-5.375v6.426zm18.434 0V16.32h-5.67v6.426h5.67zm-24.816 0h5.375V16.32H9.691v6.426zm-6.692 0h5.686V16.32H2.999v6.426z"/><path d="M32.166 44.266c-5.77.008-10.455-4.631-10.466-10.363-.01-5.733 4.657-10.39 10.427-10.403 5.77-.013 10.46 4.621 10.476 10.354.008 5.737-4.662 10.396-10.437 10.412zm0-18.777a8.45 8.45 0 0 0-7.809 5.189 8.354 8.354 0 0 0 1.845 9.151 8.49 8.49 0 0 0 9.218 1.8 8.394 8.394 0 0 0 5.196-7.775c-.024-4.621-3.798-8.357-8.45-8.365z"/><path d="M31.106 27.55v6.333a.9.9 0 0 0 1.8 0V27.55a.9.9 0 0 0-1.8 0z"/><path d="M35.41 32.983h-3.404a.9.9 0 0 0 0 1.8h3.404a.9.9 0 1 0 0-1.8z"/></g></svg>
