<svg width="39" height="31" viewBox="0 0 39 31" xmlns="http://www.w3.org/2000/svg"><title>CARTAO</title><g transform="translate(.013)" fill="#1BB99A" fill-rule="evenodd"><path d="M.4 10V5.84C.4 2.784 3.134.4 6.405.4h26.423c3.271 0 6.005 2.384 6.005 5.44V10H.4zm3.203-3.2H35.63v-.96c0-1.185-1.21-2.24-2.802-2.24H6.405c-1.592 0-2.802 1.055-2.802 2.24v.96zM31.783 13.2a1.6 1.6 0 1 1 0 3.2H2.002l1.601-1.6v9.6c0 1.796 1.288 3.2 2.802 3.2a1.6 1.6 0 1 1 0 3.2C3.057 30.8.4 27.904.4 24.4V13.2h31.382zM6.405 30.8a1.6 1.6 0 1 1 0-3.2h26.423c1.515 0 2.802-1.404 2.802-3.2v-5.444a1.6 1.6 0 0 1 3.203 0V24.4c0 3.504-2.656 6.4-6.005 6.4H6.405z" fill-rule="nonzero"/><rect x="24.421" y="19.6" width="8.007" height="3.2" rx="1.6"/></g></svg>
