<svg width="31" height="40" viewBox="0 0 31 40" xmlns="http://www.w3.org/2000/svg"><title>5</title><path d="M27.598 0a1.86 1.86 0 0 1 1.86 1.86v7.462a1.86 1.86 0 0 1-1.86 1.86H14.935l-.134.821.507-.058c.68-.069 1.382-.103 2.105-.103 3.614 0 6.769 1.314 9.364 3.896 2.601 2.587 3.92 5.8 3.92 9.533 0 4.34-1.49 7.941-4.451 10.676C23.316 38.653 19.513 40 14.936 40 7.208 40 2.106 36.448.076 29.562a1.86 1.86 0 0 1 1.519-2.368l8.533-1.232c.944-.136 1.72.09 1.952 1.015.178.708.626 1.607 1.129 2.01.5.4 1.008.584 1.59.584.734 0 1.44-.28 2.172-.897.588-.495.922-1.398.922-2.856 0-1.283-.317-2.275-.934-3.047-.543-.678-1.167-.979-2.023-.979-1.211 0-2.09.387-2.785 1.198-.394.46-.987.7-1.59.642l-7.913-.753a1.86 1.86 0 0 1-1.65-2.206L4.713 1.506A1.86 1.86 0 0 1 6.54 0h21.058zM3.38 29.967l.098.244C5.349 34.762 9.094 37 14.936 37c3.868 0 6.934-1.095 9.274-3.257 2.325-2.147 3.488-4.941 3.488-8.472 0-2.94-1.006-5.387-3.037-7.406-2.036-2.026-4.432-3.023-7.248-3.023-.5 0-.984.019-1.434.054l-.33.03-4.447.51 1.182-7.254h14.074V3H7.479L4.181 20.011l6.109.581.19-.178c1.132-1.02 2.533-1.557 4.15-1.616l.306-.006c1.77 0 3.256.718 4.365 2.105 1.078 1.347 1.592 3.006 1.592 4.921 0 2.21-.588 3.97-1.988 5.15-1.236 1.042-2.61 1.603-4.107 1.603-1.28 0-2.446-.427-3.465-1.243-.701-.562-1.277-1.38-1.684-2.266l-6.269.905zm11.334-5.17l-.04.005a.293.293 0 0 0-.202.093l-.027.028.042.066c.143.245.266.513.367.804l.037.113.002-.088c0-.423-.048-.713-.134-.924l-.045-.097z" fill="#1BB99A" fill-rule="nonzero"/></svg>
