<svg width="51" height="40" viewBox="0 0 51 40" xmlns="http://www.w3.org/2000/svg"><title>ENTREGA</title><path d="M17.527 30.144c2.568 0 4.65 1.982 4.65 4.428 0 2.445-2.082 4.428-4.65 4.428-2.569 0-4.65-1.983-4.65-4.428 0-2.446 2.081-4.428 4.65-4.428zm23.702.337c1.737.685 2.87 2.3 2.87 4.09 0 2.446-2.082 4.429-4.65 4.429-1.881 0-3.577-1.079-4.297-2.734-.72-1.654-.322-3.559 1.008-4.825 1.33-1.267 3.33-1.646 5.069-.96zm-23.702 1.613c-1.437 0-2.602 1.11-2.602 2.478s1.165 2.477 2.602 2.477c1.437 0 2.602-1.109 2.602-2.477 0-1.368-1.165-2.478-2.602-2.478zm21.922 0c-1.053 0-2.001.604-2.404 1.53a2.392 2.392 0 0 0 .564 2.7c.744.708 1.863.92 2.836.537.972-.384 1.606-1.287 1.606-2.29 0-1.367-1.165-2.477-2.602-2.477zM32.709 1c1.538 0 2.786 1.188 2.786 2.653l-.001 4.472h1.336a1.17 1.17 0 0 1 0 2.34h-1.336v3.819h5.389c1.6.159 3.071.908 4.097 2.088l3.299 4.35A8.758 8.758 0 0 1 50 25.852v4.877c0 1.465-1.247 2.653-2.786 2.653H46.21c-.456 0-.856-.286-.984-.702-.73-2.463-3.09-4.165-5.777-4.165-2.688 0-5.048 1.702-5.778 4.165a1.019 1.019 0 0 1-.983.702H24.39c-.455 0-.856-.286-.983-.702-.73-2.463-3.09-4.165-5.778-4.165-2.688 0-5.048 1.702-5.777 4.165a1.019 1.019 0 0 1-.984.702H9.762c-1.539 0-2.786-1.188-2.786-2.653l-.001-3.639H2.17a1.17 1.17 0 0 1 0-2.34h4.805v-3.638l.003-.058a2.57 2.57 0 0 1-.002-.118l-.001-3.346H5.57a1.17 1.17 0 0 1 0-2.34h1.405V8.09H3.17a1.17 1.17 0 0 1 0-2.34h3.805V3.653C6.976 2.188 8.224 1 9.763 1h22.946zm8.215 15.099h-5.409v4.896c0 1.465-1.247 2.653-2.786 2.653H9.762a2.925 2.925 0 0 1-.738 0v7.081c.011.383.335.692.738.702h.287c1.214-2.926 4.183-4.849 7.488-4.849 3.305 0 6.274 1.923 7.488 4.85h6.925c1.215-2.927 4.184-4.85 7.489-4.85 3.304 0 6.273 1.923 7.488 4.85h.287c.402-.011.726-.32.737-.703v-4.877a6.835 6.835 0 0 0-1.372-4.038l-3.299-4.35a4.447 4.447 0 0 0-2.356-1.365zM32.708 2.95H9.762c-.403.01-.727.318-.738.702V5.75h1.406a1.17 1.17 0 0 1 0 2.34H9.024v7.16H20.03a1.17 1.17 0 0 1 0 2.34H9.024v3.346c.011.384.335.692.738.703h22.946c.403-.01.727-.32.738-.703l-.001-10.471H29.57a1.17 1.17 0 0 1 0-2.34h3.875V3.653c-.01-.384-.334-.692-.737-.702z" fill="#1BB99A" fill-rule="nonzero" stroke="#1BB99A"/></svg>
