<svg width="43" height="42" viewBox="0 0 43 42" xmlns="http://www.w3.org/2000/svg"><title>Group 17</title><g fill="#1BB99A" fill-rule="evenodd"><path d="M22.593 25.916h-3.321c-.915 0-1.66-.757-1.66-1.686 0-.931-.745-1.686-1.661-1.686-.917 0-1.66.755-1.66 1.686 0 2.79 2.234 5.059 4.98 5.059v1.686c0 .931.745 1.687 1.661 1.687.917 0 1.66-.756 1.66-1.687V29.29c2.747 0 4.982-2.27 4.982-5.06 0-2.788-2.235-5.058-4.981-5.058h-3.321c-.915 0-1.66-.757-1.66-1.687 0-.929.745-1.686 1.66-1.686h3.32c.916 0 1.661.757 1.661 1.686 0 .931.744 1.687 1.66 1.687.917 0 1.661-.756 1.661-1.687 0-2.789-2.235-5.059-4.981-5.059V10.74c0-.93-.744-1.686-1.66-1.686-.917 0-1.661.755-1.661 1.686v1.686c-2.747 0-4.982 2.27-4.982 5.06 0 2.789 2.235 5.059 4.982 5.059h3.32c.916 0 1.661.757 1.661 1.686 0 .93-.745 1.686-1.66 1.686"/><path d="M21.165 41.721c11.579 0 20.965-9.322 20.965-20.821C42.13 9.4 32.744.079 21.165.079 9.587.079.2 9.4.2 20.9c0 11.5 9.387 20.821 20.965 20.821zm0-3.928c-9.394 0-17.01-7.563-17.01-16.893 0-9.33 7.616-16.893 17.01-16.893 9.394 0 17.01 7.563 17.01 16.893 0 9.33-7.616 16.893-17.01 16.893z" fill-rule="nonzero"/><path d="M31.39 6.336l2.49 2.165-23.093 26.566-2.49-2.165z"/></g></svg>
