<svg width="49" height="44" viewBox="0 0 49 44" xmlns="http://www.w3.org/2000/svg"><title>taxas</title><g fill-rule="nonzero" stroke="#1BB99A" fill="none"><path d="M2 21.754l.005.92C2.158 35.27 5.505 42 14.75 42c9.85 0 12.804-7.059 12.804-20.246C27.554 8.402 23.724 2 14.804 2 5.447 2 2 8.402 2 21.754zm7.773-.964c.055-8.782.956-12.826 5.031-12.826 4.378 0 4.98 4.323 4.98 13.735l-.003.951c-.07 9.787-1.266 13.386-5.031 13.386-3.826 0-4.945-3.767-4.979-13.86l.002-1.386z" stroke-width="3"/><path d="M44.254 23.154h-2.178l-8.382 16.61h2.244l8.316-16.61zM40.8 35.716c0 2.926 1.1 4.092 3.476 4.092 2.288 0 3.476-1.166 3.476-4.092 0-3.036-1.078-4.246-3.476-4.246-2.376 0-3.476 1.21-3.476 4.246zm2.31 0l.006-.453c.038-1.508.297-2.187 1.16-2.187.902 0 1.122.836 1.122 2.618l-.004.425c-.03 1.352-.238 2.061-1.118 2.061-.99 0-1.166-.88-1.166-2.464zm-12.936-8.338c0 2.926 1.1 4.092 3.476 4.092 2.288 0 3.476-1.166 3.476-4.092 0-3.058-1.078-4.224-3.476-4.224-2.376 0-3.476 1.166-3.476 4.224zm2.312.224l-.002-.224c0-1.826.242-2.64 1.166-2.64.924 0 1.122.836 1.122 2.618l-.004.43c-.027 1.365-.218 2.056-1.118 2.056-.922 0-1.145-.778-1.164-2.24z" stroke-width="1.1" fill="#1BB99A"/></g></svg>
